<?xml version="1.0" standalone="no"?>
<!DOCTYPE svg PUBLIC "-//W3C//DTD SVG 20010904//EN"
 "http://www.w3.org/TR/2001/REC-SVG-20010904/DTD/svg10.dtd">
<svg version="1.0" xmlns="http://www.w3.org/2000/svg"
 width="53.87" height="43.61" viewBox="0 0 195.000000 195.000000"
 preserveAspectRatio="xMidYMid meet" >

<g transform="translate(0.000000,195.000000) scale(0.100000,-0.100000)"
fill="#000000" stroke="none">
<path d="M968 1838 c-28 -43 -40 -99 -37 -171 2 -40 -3 -92 -10 -117 -20 -70
-9 -139 38 -224 31 -55 41 -85 41 -119 0 -58 -13 -88 -106 -237 -98 -159 -159
-287 -181 -381 -14 -64 -15 -86 -4 -158 8 -54 9 -87 2 -94 -5 -5 -43 -9 -85
-9 -103 0 -165 30 -243 118 -52 59 -60 64 -98 64 -47 0 -79 -19 -100 -60 -23
-45 -18 -72 24 -138 66 -102 166 -161 307 -180 40 -6 262 -7 538 -4 468 5 468
5 495 28 l26 22 8 244 c15 435 6 516 -83 739 l-41 102 31 43 c56 79 74 169 50
256 -6 21 -12 79 -13 130 -2 72 -6 101 -22 127 -11 19 -25 36 -31 38 -6 2 -47
-28 -92 -67 l-81 -70 -71 0 -71 0 -80 70 c-43 39 -83 70 -88 70 -5 0 -15 -10
-23 -22z m103 -125 l60 -57 100 0 100 -1 61 58 c33 32 64 55 69 50 4 -4 10
-53 13 -108 3 -55 8 -122 12 -148 9 -70 -2 -109 -46 -169 -22 -29 -40 -63 -40
-75 0 -12 18 -63 40 -112 46 -106 77 -219 86 -318 4 -38 3 -176 -1 -306 l-7
-236 -25 12 c-25 11 -25 14 -19 79 31 334 29 414 -12 406 -14 -3 -18 -22 -24
-118 -7 -122 -26 -330 -34 -368 -4 -18 3 -25 36 -38 38 -15 60 -39 60 -64 0
-7 -18 -10 -51 -8 -49 3 -52 5 -63 38 -6 20 -24 43 -42 55 l-30 20 4 241 c5
264 -1 352 -24 361 -9 3 -19 2 -24 -3 -4 -5 -10 -153 -12 -328 l-3 -319 33
-11 c30 -11 51 -30 52 -48 0 -5 -40 -8 -88 -8 l-88 0 -20 261 c-16 224 -22
264 -36 273 -13 8 -21 7 -29 -1 -11 -11 -5 -154 18 -391 l6 -62 -44 21 -45 22
1 76 c0 55 -5 86 -19 111 -25 47 -66 90 -87 90 -29 0 -32 -31 -5 -59 32 -33
56 -91 56 -135 0 -19 -13 -59 -30 -91 l-30 -56 43 6 c33 5 52 1 87 -17 73 -38
64 -48 -43 -48 l-96 0 -35 43 c-47 57 -73 118 -87 203 -10 59 -10 80 5 146 20
90 90 234 189 388 75 115 114 219 103 273 -4 17 -25 62 -47 99 -49 81 -59 136
-36 206 11 33 14 66 10 100 -5 48 2 122 13 122 3 0 32 -26 65 -57z m-736
-1301 c38 -51 103 -99 165 -123 55 -21 180 -26 224 -10 22 9 27 6 55 -37 16
-25 28 -50 25 -54 -7 -12 -179 -10 -271 3 -97 13 -175 47 -231 102 -69 66 -86
111 -56 141 26 27 58 19 89 -22z"/>
<path d="M1103 1553 c-19 -7 -16 -53 3 -60 18 -7 45 6 51 24 4 11 -23 44 -35
42 -4 0 -13 -3 -19 -6z"/>
<path d="M1316 1544 c-22 -21 -3 -56 27 -52 37 5 33 67 -5 68 -4 0 -14 -7 -22
-16z"/>
<path d="M1195 1460 c-4 -6 0 -21 8 -33 19 -30 11 -48 -19 -41 -25 6 -34 -9
-13 -22 19 -11 103 -12 117 -1 19 15 14 30 -9 24 -25 -7 -37 17 -19 38 19 23
4 45 -29 45 -16 0 -33 -5 -36 -10z"/>
</g>
</svg>
